<svg width="25" height="10" viewBox="0 0 25 10" fill="none" xmlns="http://www.w3.org/2000/svg">
<path d="M24.4786 -0.000406736C18.4476 0.537593 14.7566 1.01859 12.1416 1.60759C12.0935 1.61835 12.0496 1.64308 12.0156 1.67868C11.9815 1.71427 11.9587 1.75914 11.95 1.80765C11.9414 1.85616 11.9473 1.90614 11.9669 1.95132C11.9866 1.9965 12.0192 2.03487 12.0606 2.06159L14.7046 3.77159C14.7381 3.79302 14.7762 3.80627 14.8158 3.81027C14.8554 3.81426 14.8954 3.80889 14.9326 3.79459L19.1406 2.14259C20.5086 1.68059 22.2836 1.16059 24.3366 0.557593L24.5706 0.488593C24.6301 0.47108 24.6809 0.43217 24.7134 0.379362C24.7459 0.326553 24.7577 0.263585 24.7466 0.202593C24.7226 0.0765933 24.6276 -0.00340674 24.4786 -0.000406736ZM9.75857 5.14859C9.80666 5.12851 9.84727 5.0939 9.87473 5.0496C9.90218 5.0053 9.9151 4.95352 9.91169 4.90152C9.90827 4.84951 9.88869 4.79988 9.85567 4.75955C9.82266 4.71922 9.77787 4.69022 9.72757 4.67659L7.38857 4.03559C7.34436 4.02361 7.29777 4.02361 7.25357 4.03559C5.89858 4.42491 4.60814 5.01117 3.42357 5.77559C2.22357 6.54259 1.29257 7.41159 0.656566 8.35759C0.631426 8.39518 0.616949 8.43887 0.614676 8.48403C0.612404 8.52919 0.622422 8.57412 0.643662 8.61404C0.664903 8.65395 0.696572 8.68736 0.735296 8.7107C0.77402 8.73405 0.81835 8.74645 0.863566 8.74659H4.83057C4.87266 8.74658 4.91407 8.73595 4.95095 8.71567C4.98784 8.69539 5.019 8.66613 5.04157 8.63059C5.33057 8.17359 5.82157 7.65859 6.47057 7.13459C7.35157 6.35859 8.42657 5.70859 9.75857 5.14859ZM12.7916 6.19759L10.8086 5.50259C10.747 5.48151 10.6798 5.48473 10.6206 5.51159C10.0167 5.78016 9.44172 6.10953 8.90457 6.49459C8.04957 7.09359 7.21257 7.88159 6.41557 8.83759C6.38511 8.87416 6.36572 8.91866 6.35968 8.96586C6.35364 9.01307 6.3612 9.06102 6.38147 9.10407C6.40173 9.14713 6.43387 9.1835 6.4741 9.20893C6.51433 9.23435 6.56098 9.24777 6.60857 9.24759H10.3206C10.4086 9.24759 10.4906 9.20159 10.5356 9.12459C11.0106 8.32559 11.7946 7.48559 12.8666 6.62759C12.9013 6.5997 12.928 6.56302 12.9438 6.52135C12.9597 6.47968 12.9641 6.43453 12.9566 6.39059C12.9482 6.34685 12.9286 6.30604 12.8997 6.27219C12.8707 6.23835 12.8335 6.21263 12.7916 6.19759ZM8.81257 0.785594C8.77349 0.761462 8.72849 0.748652 8.68257 0.748593H0.750566C0.689939 0.748219 0.631241 0.76989 0.585402 0.809571C0.539563 0.849251 0.509705 0.904237 0.501388 0.964293C0.49307 1.02435 0.50686 1.08538 0.54019 1.13602C0.57352 1.18667 0.624119 1.22348 0.682566 1.23959L8.60657 3.48159C11.9186 4.54502 15.1696 5.79024 18.3446 7.21159C18.4028 7.2374 18.4687 7.24009 18.5289 7.2191C18.5891 7.19812 18.639 7.15504 18.6686 7.09859C18.698 7.04228 18.7049 6.97691 18.6881 6.91567C18.6712 6.85443 18.6317 6.80187 18.5776 6.76859L8.81257 0.785594Z" fill="black"/>
</svg>
